# xmcd
#
# Track frame offsets:
#	150
#	18300
#	31427
#	44855
#	60090
#	72340
#	86057
#	102760
#	116172
#	126465
#	137585
#	148397
#	159895
#	172897
#	189347
#
# Disc length: 2741 seconds
# Revision: 5
# Processed by: cddbd v1.5.2PL0 Copyright (c) Steve Scherf et al.
# Submitted via: dBpowerAMP V12.0
#
DISCID=d20ab30f
DTITLE=Various Artist - Classic Country: Golden '70s D1
DYEAR=1999
DGENRE=Country
TTITLE0=Hank Williams - Family Tradition
TTITLE1=The Oak Ridge Boys - Y'all Come Back Saloon
TTITLE2=Waylon Jennings - Amanda
TTITLE3=Jessi Colter - I'm Not Lisa
TTITLE4=Conway Twitty - Linda On My Mind
TTITLE5=Barbara Fairchild - Teddy Bear Song
TTITLE6=Ray Price - I Won't Mention It Again
TTITLE7=Crystal Gayle - Why Have You Left the One You Left Me For
TTITLE8=Billy "Crash" Craddock - Rub It In
TTITLE9=Don Williams - It Must Be Love
TTITLE10=Tammy Wynette - Near You
TTITLE11=Loretta Lynn - Love Is the Foundation
TTITLE12=Charley Pride - She's Too Good To Be True
TTITLE13=Cal Smith - Country Bumpkin
TTITLE14=Charlie Daniels - The Devil Went Down To Georgia
EXTD=
EXTT0=
EXTT1=
EXTT2=
EXTT3=
EXTT4=
EXTT5=
EXTT6=
EXTT7=
EXTT8=
EXTT9=
EXTT10=
EXTT11=
EXTT12=
EXTT13=
EXTT14=
PLAYORDER=
